<?xml version="1.0" encoding="UTF-8"?>
<svg id="Layer_1" xmlns="http://www.w3.org/2000/svg" version="1.1" viewBox="0 0 555.8 78">
  <!-- Generator: Adobe Illustrator 29.7.1, SVG Export Plug-In . SVG Version: 2.1.1 Build 8)  -->
  <defs>
    <style>
      .st0 {
        fill: #fb8b24;
      }

      .st1 {
        fill: #9a031e;
      }

      .st2 {
        fill: #e46413;
      }
    </style>
  </defs>
  <g>
    <path class="st2" d="M23.3,15l19.7,17.2,20.1-17.2c-1.9.6-5,1.1-8.8.8-7.4-.5-10.3-4.7-16.4-5.4-3.1-.4-8,0-14.6,4.5Z"/>
    <path class="st1" d="M0,35l19.7,17.2,20.1-17.2c-1.9.6-5,1.1-8.8.8-7.4-.5-10.3-4.7-16.4-5.4-3.1-.4-8,0-14.6,4.5Z"/>
    <path class="st1" d="M22.9,55l19.7,17.2,20.1-17.2c-1.9.6-5,1.1-8.8.8-7.4-.5-10.3-4.7-16.4-5.4-3.1-.4-8,0-14.6,4.5Z"/>
    <path class="st2" d="M46.2,35l19.7,17.2,20.1-17.2c-1.9.6-5,1.1-8.8.8-7.4-.5-10.3-4.7-16.4-5.4-3.1-.4-8,0-14.6,4.5Z"/>
    <path class="st0" d="M69.5,15l19.7,17.2,20.1-17.2c-1.9.6-5,1.1-8.8.8-7.4-.5-10.3-4.7-16.4-5.4-3.1-.4-8,0-14.6,4.5Z"/>
    <path class="st2" d="M69.1,55l19.7,17.2,20.1-17.2c-1.9.6-5,1.1-8.8.8-7.4-.5-10.3-4.7-16.4-5.4-3.1-.4-8,0-14.6,4.5Z"/>
    <path class="st0" d="M92.4,35l19.7,17.2,20.1-17.2c-1.9.6-5,1.1-8.8.8-7.4-.5-10.3-4.7-16.4-5.4-3.1-.4-8,0-14.6,4.5Z"/>
  </g>
  <g>
    <path class="st1" d="M172.6,68.8c-4,0-7.7-1-11-3.1-3.3-2.1-5.9-4.8-7.9-8.3-2-3.5-2.9-7.3-2.9-11.6s.6-6.1,1.7-8.9c1.1-2.8,2.7-5.3,4.7-7.4,2-2.1,4.3-3.8,6.9-5,2.6-1.2,5.5-1.8,8.5-1.8s6.8.7,9,2.2c2.1,1.4,3.8,3.4,5,5.7v-7h11.4v44.1h-11.1v-7.2c-1.2,2.5-2.9,4.5-5,6-2.2,1.5-5.2,2.3-9.2,2.3ZM174.5,58.5c2.5,0,4.7-.6,6.6-1.7,1.8-1.2,3.3-2.7,4.3-4.6,1-1.9,1.5-4,1.5-6.3s-.5-4.4-1.5-6.4c-1-1.9-2.4-3.5-4.3-4.7-1.8-1.2-4-1.8-6.6-1.8s-4.6.6-6.4,1.7c-1.8,1.2-3.3,2.7-4.3,4.6-1,1.9-1.5,4-1.5,6.4s.5,4.3,1.5,6.2c1,2,2.4,3.5,4.3,4.7,1.8,1.2,4,1.8,6.4,1.8Z"/>
    <path class="st1" d="M203,67.7V5.8h11.4v35.6l16.5-17.8h16.3l-20.8,20.5,20.9,23.6h-15.2l-17.7-20.9v20.9h-11.4Z"/>
    <path class="st1" d="M262.5,68.8c-7.4,0-13.5-2.6-18.3-7.7l7.7-7c3.2,3.6,6.7,5.4,10.3,5.4s3.5-.4,4.5-1.3c1-.9,1.6-2,1.6-3.3s-.2-1.5-.6-2c-.4-.6-1.1-1.1-2.3-1.6-1.2-.5-2.9-1-5.2-1.5-4-1-6.9-2.1-8.8-3.6-1.9-1.4-3.2-3-3.8-4.7-.6-1.8-.9-3.6-.9-5.4,0-3.8,1.5-7.1,4.4-9.6,2.9-2.6,6.9-3.9,12.1-3.9s6.6.5,9.2,1.6c2.5,1.1,4.9,3.1,7.2,6l-8.3,6.4c-1.1-1.7-2.3-2.9-3.6-3.6-1.3-.7-2.7-1.1-4.2-1.1s-2.9.3-3.9.9c-1,.6-1.6,1.6-1.6,3s.3,1.5,1,2.2c.7.7,2.3,1.4,4.9,2.1,4.3,1.1,7.6,2.3,9.8,3.8,2.3,1.4,3.8,3.1,4.7,4.9.8,1.8,1.3,3.8,1.3,6s-.8,5.1-2.2,7.3c-1.5,2.1-3.5,3.8-6.1,5.1-2.6,1.2-5.5,1.9-8.8,1.9Z"/>
    <path class="st1" d="M289.3,20c-1.9,0-3.5-.7-4.9-2-1.3-1.3-2-2.9-2-4.8s.7-3.4,2-4.7c1.3-1.3,3-2,4.9-2s3.6.7,4.9,2c1.3,1.3,2,2.9,2,4.7s-.7,3.5-2,4.8c-1.3,1.3-2.9,2-4.9,2ZM283.6,67.7V23.6h11.4v44.1h-11.4Z"/>
    <path class="st1" d="M314.7,68.8c-7.4,0-13.5-2.6-18.3-7.7l7.7-7c3.2,3.6,6.7,5.4,10.3,5.4s3.5-.4,4.5-1.3c1-.9,1.6-2,1.6-3.3s-.2-1.5-.6-2c-.4-.6-1.1-1.1-2.3-1.6-1.2-.5-2.9-1-5.2-1.5-4-1-6.9-2.1-8.8-3.6-1.9-1.4-3.2-3-3.8-4.7-.6-1.8-.9-3.6-.9-5.4,0-3.8,1.5-7.1,4.4-9.6,2.9-2.6,6.9-3.9,12.1-3.9s6.6.5,9.2,1.6c2.5,1.1,4.9,3.1,7.2,6l-8.3,6.4c-1.1-1.7-2.3-2.9-3.6-3.6-1.3-.7-2.7-1.1-4.2-1.1s-2.9.3-3.9.9c-1,.6-1.6,1.6-1.6,3s.3,1.5,1,2.2c.7.7,2.3,1.4,4.9,2.1,4.3,1.1,7.6,2.3,9.8,3.8,2.3,1.4,3.8,3.1,4.7,4.9.8,1.8,1.3,3.8,1.3,6s-.8,5.1-2.2,7.3c-1.5,2.1-3.5,3.8-6.1,5.1-2.6,1.2-5.5,1.9-8.8,1.9Z"/>
    <path class="st1" d="M339.6,67.7v-34.3h-6.2v-9.8h6.2v-3c0-4.5,1.3-8.1,4-10.8,2.7-2.7,6.2-4.1,10.7-4.1h4.7v9.8h-3c-3.3,0-5,1.8-5,5.3v2.8h9v9.8h-9v34.3h-11.4ZM369.5,20c-1.9,0-3.5-.7-4.9-2-1.3-1.3-2-2.9-2-4.8s.7-3.4,2-4.7c1.3-1.3,3-2,4.9-2s3.6.7,4.9,2c1.3,1.3,2,2.9,2,4.7s-.7,3.5-2,4.8c-1.3,1.3-2.9,2-4.9,2ZM363.8,67.7V23.6h11.4v44.1h-11.4Z"/>
    <path class="st1" d="M380.5,67.7V23.6h11.1v8.4c.7-3.2,2.2-5.6,4.5-7.3,2.3-1.7,5.3-2.4,9.2-2.2v10.8h-1.6c-3.3,0-6.1,1-8.3,3.1-2.3,2.1-3.4,5-3.4,8.7v22.6h-11.4Z"/>
    <path class="st1" d="M427.6,68.8c-4.5,0-8.5-1-12-3.1-3.4-2.1-6.1-4.9-8-8.4-1.9-3.5-2.8-7.3-2.8-11.6s1-8.1,3-11.7c2-3.5,4.7-6.3,8.1-8.4,3.4-2.1,7.3-3.1,11.7-3.1s8.3,1,11.7,3.1c3.4,2.1,6,4.9,7.9,8.4,1.9,3.5,2.8,7.4,2.8,11.7s0,1.3,0,2c0,.7-.1,1.4-.3,2.1h-33c.6,2.6,1.9,4.7,3.8,6.4,1.9,1.6,4.3,2.5,7.2,2.5s4.7-.6,6.5-1.7c1.8-1.1,3.3-2.5,4.3-4.2l8.9,6.7c-1.8,2.8-4.4,5-7.9,6.8-3.5,1.8-7.4,2.6-11.8,2.6ZM427.4,32.4c-2.7,0-5,.8-7,2.5-1.9,1.6-3.2,3.8-3.8,6.4h21.8c-.6-2.4-1.9-4.5-3.9-6.3-2-1.8-4.3-2.6-7.2-2.6Z"/>
  </g>
</svg>